<svg width="247" height="248" viewBox="0 0 247 248" fill="none" xmlns="http://www.w3.org/2000/svg">
<circle cx="123.595" cy="123.171" r="123.171" fill="#3E497A"/>
<path d="M33.5751 89.839C35.6431 86.5928 40.4498 86.8026 42.2271 90.2167L62.3748 128.92C64.152 132.334 61.567 136.392 57.7216 136.224L14.1298 134.321C10.2845 134.153 8.06289 129.885 10.1309 126.639L33.5751 89.839Z" fill="#4C547A"/>
<path d="M50.5751 82.839C52.6432 79.5928 57.4498 79.8026 59.2271 83.2167L79.3748 121.92C81.152 125.334 78.567 129.392 74.7216 129.224L31.1298 127.321C27.2845 127.153 25.0629 122.885 27.131 119.639L50.5751 82.839Z" fill="#C4C4C4"/>
<path d="M156.452 107.805C155.771 106.512 154.581 106.041 153.8 105.869C153.925 105.745 154.021 105.587 154.087 105.399C154.109 105.335 154.099 105.265 154.06 105.209C154.021 105.153 153.958 105.119 153.889 105.116C153.85 105.114 149.979 104.952 148.612 104.305C148.033 104.031 147.575 103.389 147.09 102.71C146.46 101.828 145.747 100.829 144.601 100.459C143.724 100.176 142.808 100.302 142.286 100.42L142.474 99.9363C142.5 99.8692 142.49 99.794 142.447 99.7357C142.405 99.6775 142.332 99.6411 142.262 99.6462C141.323 99.677 140.258 99.7572 139.358 100.081C139.185 99.3662 139.165 98.2766 139.165 98.2654C139.164 98.1765 139.107 98.0977 139.021 98.0673C138.936 98.037 138.841 98.0619 138.782 98.1293C138.747 98.1695 137.923 99.1248 137.951 100.088C137.959 100.369 138.027 100.609 138.103 100.815C137.871 101.028 137.673 101.271 137.51 101.552C137.366 101.247 137.12 101.09 136.753 100.94C136.686 100.912 136.608 100.92 136.547 100.96C136.486 101.001 136.45 101.069 136.452 101.141C136.472 102.262 136.215 103.049 135.655 103.607C135.026 103.115 133.939 102.602 132.786 103.613C131.196 105.01 131.815 106.663 131.978 107.024C131.931 107.262 131.738 108.115 131.376 108.513C131.203 108.703 130.933 108.845 130.672 108.983C130.271 109.194 129.856 109.413 129.856 109.829C129.856 110.258 130.175 112.035 131.079 112.315C131.199 112.352 131.352 112.368 131.528 112.368C132.262 112.368 133.385 112.085 134.147 111.817L134.447 112.416C134.55 112.619 134.572 112.857 134.511 113.085C134.198 114.239 134.33 115.396 134.916 116.621C134.953 116.697 135.03 116.744 135.114 116.744C135.12 116.744 135.126 116.744 135.131 116.744C135.222 116.736 135.299 116.675 135.323 116.589L135.471 116.082C135.681 116.881 136.019 117.739 136.339 118.52L136.138 123.326C136.135 123.401 136.172 123.472 136.235 123.513C136.272 123.537 136.314 123.549 136.356 123.549C136.387 123.549 136.419 123.542 136.448 123.529L137.591 123.008L138.59 123.52C138.658 123.554 138.739 123.552 138.805 123.513C138.87 123.474 138.91 123.404 138.909 123.329L138.884 119.359C138.971 119.354 139.048 119.3 139.077 119.218C139.142 119.039 139.187 118.84 139.215 118.619C139.257 118.7 139.302 118.776 139.349 118.844C139.537 119.107 139.727 119.217 139.88 119.306C140.052 119.406 140.14 119.459 140.201 119.715L140.302 121.642L140.392 123.342C140.396 123.418 140.44 123.486 140.509 123.521C140.578 123.556 140.661 123.552 140.726 123.511L141.709 122.9L142.682 123.511C142.718 123.533 142.759 123.544 142.8 123.544C142.838 123.544 142.876 123.535 142.91 123.515C142.98 123.474 143.022 123.398 143.017 123.318L142.76 118.978C142.91 118.734 143.04 118.467 143.151 118.181C143.41 118.721 143.821 119.148 144.381 119.453C144.414 119.471 144.451 119.48 144.487 119.48C144.533 119.48 144.58 119.465 144.619 119.437C144.687 119.386 144.719 119.299 144.699 119.217C144.607 118.831 144.545 118.443 144.51 118.056C144.782 118.515 145.116 118.947 145.512 119.347C145.554 119.389 145.611 119.412 145.669 119.412C145.689 119.412 145.71 119.408 145.731 119.402C145.809 119.38 145.867 119.316 145.883 119.238C145.927 119.012 145.964 118.798 145.997 118.589C146.113 118.837 146.256 119.067 146.429 119.273C146.476 119.329 146.548 119.36 146.622 119.35C146.696 119.342 146.76 119.297 146.793 119.232C146.932 118.956 147.042 118.648 147.128 118.295C147.247 118.699 147.401 119.057 147.594 119.375C147.633 119.44 147.704 119.48 147.781 119.48C147.787 119.48 147.794 119.48 147.8 119.479C147.884 119.472 147.956 119.418 147.985 119.341C148.15 118.906 148.274 118.458 148.355 118.005C148.636 118.381 148.818 118.814 148.893 119.298C148.905 119.376 148.96 119.441 149.036 119.467C149.06 119.476 149.084 119.48 149.109 119.48C149.162 119.48 149.215 119.46 149.255 119.424C149.319 119.367 149.38 119.308 149.438 119.246L149.175 123.321C149.169 123.402 149.211 123.479 149.283 123.52C149.355 123.56 149.444 123.557 149.513 123.512L150.573 122.816L151.551 123.508C151.589 123.534 151.634 123.548 151.679 123.548C151.71 123.548 151.741 123.542 151.77 123.528C151.842 123.496 151.89 123.428 151.896 123.351L152.262 118.754C152.302 118.776 152.347 118.786 152.395 118.78C152.471 118.77 152.536 118.721 152.566 118.651C152.668 118.415 152.757 118.16 152.834 117.882C152.871 118.173 152.917 118.471 152.972 118.776L152.799 123.326C152.796 123.406 152.839 123.48 152.909 123.52C152.98 123.56 153.067 123.557 153.135 123.513L154.301 122.773L155.417 123.511C155.454 123.535 155.497 123.548 155.539 123.548C155.574 123.548 155.609 123.54 155.641 123.523C155.712 123.486 155.757 123.414 155.757 123.336L155.805 117.624C155.971 117.295 156.088 116.946 156.152 116.579C156.361 116.858 156.642 117.082 156.986 117.239C157.053 117.269 157.13 117.265 157.193 117.227C157.255 117.189 157.294 117.123 157.296 117.051C157.304 116.754 157.471 109.74 156.452 107.805ZM136.654 121.433L136.776 118.498L136.936 116.953C137.033 117.235 137.157 117.518 137.318 117.749C137.556 118.095 137.804 118.285 138.023 118.452C138.182 118.574 138.321 118.684 138.445 118.838L138.461 121.486L136.654 121.433ZM137.587 106.177C137.834 106.287 138.093 106.406 138.351 106.525L138.676 106.675C138.81 106.735 138.815 106.86 138.814 106.897C138.813 106.932 138.798 107.051 138.664 107.1C138.242 107.256 137.625 107.421 137.076 107.318C137.024 107.309 136.973 107.298 136.922 107.283C136.271 107.091 136.147 106.57 136.157 106.167C136.161 105.994 136.191 105.868 136.194 105.851C136.201 105.808 136.213 105.801 136.221 105.797C136.246 105.784 136.283 105.775 136.338 105.775C136.513 105.775 136.869 105.863 137.587 106.177ZM140.637 119.721C140.757 119.458 140.836 119.183 140.87 118.897C140.968 119.054 141.076 119.208 141.193 119.356C141.234 119.409 141.3 119.438 141.367 119.439C141.435 119.439 141.499 119.407 141.54 119.353C141.675 119.176 141.778 118.978 141.849 118.763L142.063 119.376C142.089 119.45 142.155 119.505 142.234 119.517C142.275 119.524 142.316 119.518 142.353 119.503L142.462 121.331L140.726 121.408L140.637 119.721ZM149.747 121.222L149.918 118.571C150.041 118.339 150.139 118.085 150.214 117.808L150.363 118.636C150.378 118.716 150.438 118.782 150.517 118.804C150.597 118.827 150.683 118.803 150.739 118.743C151.092 118.363 151.344 117.938 151.494 117.472C151.593 117.742 151.719 117.994 151.866 118.233L151.623 121.279L149.747 121.222ZM155.339 121.289L153.312 121.318L153.406 118.856C154.066 118.245 154.489 117.489 154.667 116.596C154.773 117.217 154.783 117.848 154.695 118.482C154.683 118.575 154.732 118.665 154.818 118.704C154.904 118.744 155.006 118.725 155.071 118.657C155.176 118.546 155.272 118.431 155.363 118.315L155.339 121.289ZM138.76 98.9114C138.788 99.3076 138.842 99.8159 138.944 100.22C138.961 100.285 138.982 100.348 139.004 100.413L139.006 100.42C139.008 100.425 139.009 100.43 139.011 100.434C139.117 100.73 139.276 101.008 139.444 101.303C139.856 102.024 140.282 102.77 139.945 103.852C139.507 105.268 138.011 105.686 137.699 105.759C136.908 105.417 136.348 105.243 136.014 105.422C135.918 105.473 135.797 105.577 135.767 105.769C135.767 105.769 135.757 105.81 135.748 105.871C135.656 105.82 135.583 105.749 135.527 105.648C135.488 105.584 135.455 105.5 135.426 105.398C135.397 105.297 135.451 105.186 135.551 105.138C135.839 105.001 136.116 104.86 136.373 104.72C137.869 103.919 138.703 103.217 138.85 102.633C139.028 101.925 138.82 101.422 138.636 100.978C138.611 100.918 138.587 100.857 138.562 100.795C138.48 100.595 138.396 100.354 138.388 100.077C138.376 99.663 138.57 99.2319 138.76 98.9114ZM133.077 103.932C134.029 103.097 134.932 103.538 135.521 104.055C135.715 104.228 135.853 104.389 135.92 104.472C135.74 104.567 135.554 104.66 135.36 104.753C135.068 104.893 134.919 105.213 135.006 105.513C135.026 105.584 135.048 105.648 135.072 105.707C134.832 105.922 134.378 106.276 134.03 106.339C133.8 106.382 133.639 106.32 133.453 106.248C133.25 106.17 133.019 106.082 132.715 106.154C132.499 106.205 132.344 106.326 132.235 106.459C132.084 105.89 132.02 104.86 133.077 103.932ZM131.21 111.907C130.648 111.733 130.292 110.361 130.292 109.829C130.292 109.669 130.577 109.519 130.878 109.36C131.159 109.213 131.476 109.045 131.701 108.799C132.206 108.244 132.412 107.082 132.419 107.04C132.42 107.036 132.511 106.642 132.816 106.569C132.987 106.529 133.116 106.579 133.294 106.647C133.5 106.726 133.757 106.824 134.109 106.76C134.556 106.679 135.049 106.298 135.308 106.073C135.421 106.19 135.561 106.272 135.729 106.326C135.767 107.006 136.147 107.502 136.798 107.693C136.844 107.707 136.89 107.716 136.936 107.725C137.144 107.878 137.274 108.109 137.324 108.432H137.004C136.933 108.432 136.866 108.466 136.825 108.522C136.785 108.579 136.775 108.652 136.798 108.717C136.958 109.158 136.937 109.589 136.728 110.049L136.448 109.509L136.444 109.501C136.439 109.491 136.431 109.485 136.424 109.477C136.414 109.462 136.405 109.448 136.391 109.436C136.386 109.432 136.38 109.43 136.374 109.426C136.335 109.397 136.288 109.379 136.237 109.383C136.204 109.383 136.176 109.392 136.151 109.407C136.146 109.41 136.139 109.411 136.134 109.415C136.126 109.42 136.122 109.428 136.115 109.434C136.099 109.447 136.084 109.461 136.072 109.477C136.069 109.482 136.064 109.484 136.061 109.489C136.039 109.517 136.016 109.552 135.99 109.591C135.438 110.421 135.003 110.934 134.696 111.118C134.623 111.162 134.474 111.238 134.179 111.351C133.167 111.733 131.682 112.051 131.21 111.907Z" fill="#1E3454"/>
<path d="M168.07 97.9351C168.07 98.952 168.864 99.7765 169.843 99.7765C170.822 99.7765 171.615 98.952 171.615 97.9351C171.615 96.9179 170.822 96.0934 169.843 96.0934C168.864 96.0934 168.07 96.9179 168.07 97.9351Z" fill="#1E3454"/>
<path d="M168.942 106.306C168.942 106.306 168.916 105.687 168.907 104.85V104.85C168.835 104.942 168.754 105.026 168.666 105.102C167.92 105.717 165.155 105.984 165.155 105.984C165.155 105.984 167.517 105.032 168.07 104.387C168.333 104.084 168.657 103.381 168.951 102.667C168.997 101.828 169.087 101.069 169.26 100.686C169.514 100.119 171.198 99.6289 171.198 99.6289L171.332 99.8862C171.332 99.8862 171.485 99.9074 171.729 99.9478V99.9475C171.766 99.8206 171.812 99.6964 171.866 99.5758C171.949 99.3652 172.081 99.1775 172.25 99.0278C172.44 98.8632 172.724 98.874 172.9 99.0525C173.026 99.2407 173.084 99.4664 173.064 99.6921C173.071 99.8684 173.065 100.045 173.048 100.221C173.93 100.437 174.819 100.749 174.918 101.165C175.117 101.983 174.597 106.265 173.78 106.487C173.279 106.625 172.546 106.519 172.053 106.417C171.961 107.562 171.399 109.672 171.471 110.757C171.554 112.012 172.786 115.609 172.786 115.609C172.786 115.609 170.877 113.285 170.215 111.267C170.039 110.706 169.843 109.185 169.843 109.185C169.843 109.185 169.008 109.852 168.336 111.309C167.808 112.435 167.631 115.662 167.631 115.662C167.631 115.662 166.942 113.039 167.254 110.586C167.406 109.36 168.943 106.306 168.943 106.306L168.942 106.306ZM172.703 100.138C172.712 99.9853 172.712 99.8323 172.703 99.6797C172.703 99.6181 172.703 99.5581 172.691 99.5034V99.5036C172.688 99.4598 172.68 99.4168 172.668 99.3749C172.668 99.3749 172.648 99.322 172.668 99.3449C172.668 99.3449 172.632 99.2886 172.645 99.3026C172.629 99.2843 172.607 99.2729 172.583 99.271C172.502 99.2795 172.43 99.3241 172.386 99.3926C172.317 99.4805 172.258 99.5756 172.21 99.6762C172.154 99.7854 172.109 99.899 172.074 100.016C172.264 100.041 172.479 100.085 172.703 100.135L172.703 100.138ZM171.885 102.135L171.907 100.725L171.554 100.586L171.885 102.135Z" fill="#1E3454"/>
<path d="M246.766 124.078C246.766 192.104 191.62 247.249 123.595 247.249C55.5692 247.249 0.423706 192.104 0.423706 124.078C0.423706 56.0527 37.9734 124.078 105.999 124.078C174.024 124.078 246.766 56.0527 246.766 124.078Z" fill="#1E3454"/>
<path fill-rule="evenodd" clip-rule="evenodd" d="M221.887 95.5272C222.02 95.4932 222.159 95.4512 222.306 95.3977C221.663 95.0965 221.574 95.0703 221.02 94.6502C221.288 94.6055 221.555 94.5276 221.808 94.4085C221.217 94.1296 220.666 93.7913 220.164 93.3936C220.375 93.3397 220.585 93.2812 220.795 93.2191C221.064 93.1943 221.335 93.1434 221.607 93.0624C221.629 93.0511 221.696 93.0401 221.678 93.0252C221.209 92.7217 220.775 92.3971 220.378 92.054C220.489 92.0204 220.599 91.979 220.707 91.928C220.271 91.7225 219.864 91.4758 219.489 91.1898C219.31 90.992 219.142 90.7898 218.986 90.5831C219.031 90.5756 219.076 90.5663 219.121 90.5557C219.522 90.5928 219.938 90.5592 220.361 90.4292C220.376 90.4179 220.428 90.4105 220.413 90.3994C220.27 90.3021 220.131 90.2021 219.996 90.0996C220.237 90.0643 220.476 89.9981 220.707 89.8939C219.694 89.4142 218.845 88.7239 218.167 87.8141C218.667 87.9407 219.324 87.8143 219.669 87.6329C219.292 87.425 218.944 87.1713 218.627 86.8732C218.767 86.8428 218.909 86.791 219.048 86.7143C218.42 86.3594 217.891 85.8505 217.469 85.1833C217.631 85.2787 217.843 85.3142 218.058 85.3098C218.279 85.3185 218.508 85.2778 218.741 85.1674C218.771 85.1542 218.799 85.1405 218.825 85.1263C218.825 85.1262 218.824 85.1256 218.824 85.1253C218.825 85.1243 218.827 85.1236 218.829 85.1225C218.145 84.7358 217.591 84.1519 217.17 83.36C217.416 83.4383 217.684 83.4345 217.959 83.2856C217.765 83.1739 217.591 83.0439 217.427 82.884C217.428 82.8841 217.429 82.8841 217.429 82.8841C217.432 82.8852 217.435 82.8866 217.438 82.8876C217.669 82.9286 217.91 82.9025 218.163 82.765C218.121 82.741 218.079 82.7159 218.038 82.6899C218.029 82.6844 218.021 82.6785 218.012 82.6728C217.98 82.6516 217.948 82.6304 217.916 82.608C217.906 82.6013 217.897 82.5938 217.887 82.5869C217.857 82.5647 217.827 82.5424 217.797 82.5192C217.788 82.5119 217.78 82.5045 217.771 82.4974C217.741 82.4732 217.711 82.4486 217.682 82.423C217.674 82.4166 217.667 82.4096 217.659 82.4029C217.629 82.3755 217.599 82.3475 217.569 82.3188C217.564 82.3136 217.558 82.3084 217.553 82.3032C217.521 82.2713 217.489 82.2389 217.458 82.2054C217.456 82.2029 217.454 82.2002 217.451 82.1977C217.208 81.9332 217 81.6145 216.828 81.2406C216.857 81.2515 216.886 81.2593 216.914 81.2629C216.91 81.2555 216.91 81.2517 216.907 81.248C216.847 81.1106 216.795 80.9653 216.743 80.8166C216.966 80.9541 217.107 80.9392 217.386 80.7869C217.349 80.7661 217.313 80.7434 217.278 80.7195C217.272 80.7161 217.267 80.7126 217.262 80.7091C217.228 80.6858 217.194 80.661 217.161 80.6349C217.157 80.6311 217.152 80.6274 217.148 80.6236C217.115 80.5968 217.082 80.5687 217.051 80.5395C217.051 80.5393 217.05 80.5388 217.05 80.5384C217.02 80.5099 216.991 80.4799 216.962 80.4488C216.956 80.4413 216.949 80.4339 216.942 80.4264C216.916 80.3974 216.891 80.3671 216.866 80.3359C216.858 80.3252 216.85 80.3143 216.842 80.3033C216.824 80.2795 216.806 80.2549 216.789 80.2299C216.776 80.2113 216.764 80.1922 216.751 80.1728C216.737 80.1503 216.723 80.1271 216.709 80.1036C216.698 80.084 216.686 80.0641 216.675 80.044C216.666 80.0267 216.656 80.0087 216.647 79.9909C216.628 79.9538 216.61 79.9164 216.592 79.8775C216.587 79.8671 216.583 79.8567 216.578 79.8462C216.554 79.7913 216.531 79.735 216.509 79.6763C216.382 79.3329 216.298 78.9233 216.259 78.4436C216.234 78.8956 216.14 79.3353 215.946 79.7456C215.749 80.1308 215.362 80.5331 214.991 80.8495C215.169 80.9129 215.344 80.9091 215.508 80.8644C215.511 80.8606 215.515 80.8532 215.519 80.8457C215.523 80.8495 215.523 80.857 215.526 80.8606C215.586 80.8419 215.645 80.8196 215.705 80.7936C215.66 80.8978 215.616 81.0019 215.567 81.1061C215.605 81.0947 215.655 81.0768 215.708 81.0545C215.418 81.6562 214.997 82.2228 214.407 82.7309C214.406 82.732 214.406 82.7328 214.405 82.7339C214.392 82.7453 214.379 82.7567 214.366 82.7682C214.38 82.7733 214.395 82.7775 214.409 82.7823C214.409 82.7825 214.41 82.783 214.41 82.7834C214.416 82.7851 214.421 82.7863 214.426 82.7881C214.44 82.7922 214.454 82.7965 214.467 82.8002C214.485 82.8052 214.502 82.8094 214.52 82.8133C214.527 82.8151 214.534 82.8168 214.541 82.8185C214.691 82.8511 214.839 82.857 214.983 82.8426C214.986 82.8419 214.989 82.841 214.991 82.8403C215.007 82.8386 215.023 82.8374 215.039 82.8351C214.894 82.9913 214.737 83.1438 214.566 83.2889C214.796 83.3702 215.018 83.378 215.233 83.3375C214.866 83.9533 214.385 84.5339 213.769 85.0693C213.747 85.0882 213.726 85.1071 213.704 85.1259C213.711 85.1287 213.719 85.131 213.726 85.1336C213.737 85.1374 213.748 85.1448 213.759 85.1519C214.02 85.2338 214.28 85.256 214.529 85.2302C214.59 85.226 214.661 85.2154 214.737 85.1993C214.795 85.1881 214.852 85.1751 214.909 85.1597C214.529 85.7102 214.061 86.2342 213.488 86.7215C213.64 86.7774 213.796 86.8069 213.953 86.8143C213.652 87.1006 213.317 87.3723 212.945 87.6361C212.948 87.6371 212.951 87.6377 212.954 87.6385C212.954 87.639 212.953 87.6392 212.952 87.6397C212.937 87.6472 212.982 87.6546 212.997 87.6621C213.339 87.7701 213.681 87.796 214.012 87.7663C214.063 87.7555 214.111 87.745 214.159 87.733C214.159 87.733 214.16 87.7329 214.161 87.7329C213.685 88.5546 213.053 89.3875 211.997 89.897C212.279 89.9833 212.531 90.0299 212.78 90.0457C212.597 90.1746 212.406 90.2939 212.209 90.4028C212.481 90.5453 212.909 90.6594 213.342 90.6817C212.899 91.1155 212.401 91.5341 211.833 91.935C211.961 91.9755 212.269 92.0036 212.431 92.0278C211.975 92.4147 211.481 92.7483 210.948 93.0282C211.278 93.1955 211.671 93.3315 212.059 93.3724C211.653 93.733 211.214 94.0797 210.736 94.4188C210.911 94.4709 211.089 94.512 211.264 94.5414C211.086 94.7012 210.896 94.8575 210.703 95.0136C210.843 95.0635 210.99 95.0919 211.141 95.104C210.859 95.2927 210.565 95.4662 210.26 95.6235C210.971 95.7946 211.61 95.9099 212.518 95.304C212.588 95.6833 212.64 95.9286 212.529 96.1928C213.036 96.1233 213.293 95.9068 213.575 95.5235C213.657 95.4825 213.74 95.4411 213.822 95.4002C213.89 95.7511 213.876 96.2703 213.816 96.5575C214.115 96.6439 214.775 96.2743 215.271 95.8775C215.275 95.877 215.28 95.8757 215.284 95.8752V99.0162C215.284 99.5681 215.731 100.016 216.283 100.016C216.835 100.016 217.282 99.5681 217.282 99.0162V96.3954C217.614 96.5706 217.952 96.6992 218.234 96.7285C218.123 96.5621 218.056 96.3094 218.014 96.0473C218.105 96.0828 218.176 96.0952 218.215 96.0703C218.195 95.8785 218.209 95.6616 218.244 95.4629C218.634 95.7693 219.199 96.1804 219.613 96.2488C219.474 96.0249 219.466 95.5092 219.538 95.2636C219.715 95.3271 219.891 95.3934 220.073 95.4525C220.699 95.8049 221.468 95.8011 221.952 95.6578C221.978 95.6465 222.053 95.6355 222.03 95.6206C221.982 95.5896 221.935 95.5584 221.887 95.5271L221.887 95.5272Z" fill="#C4C4C4"/>
<path fill-rule="evenodd" clip-rule="evenodd" d="M233.653 101.41C233.787 101.377 233.926 101.334 234.073 101.281C233.43 100.98 233.34 100.954 232.786 100.533C233.054 100.489 233.322 100.411 233.574 100.292C232.983 100.013 232.433 99.6746 231.931 99.2769C232.141 99.223 232.352 99.1645 232.562 99.1024C232.83 99.0776 233.102 99.0267 233.374 98.9457C233.396 98.9344 233.463 98.9234 233.444 98.9085C232.976 98.605 232.542 98.2804 232.144 97.9373C232.256 97.9037 232.366 97.8623 232.473 97.8113C232.037 97.6058 231.631 97.3591 231.255 97.0731C231.076 96.8753 230.908 96.6731 230.752 96.4664C230.797 96.4589 230.842 96.4496 230.887 96.439C231.288 96.4761 231.704 96.4425 232.128 96.3125C232.142 96.3012 232.195 96.2938 232.18 96.2827C232.037 96.1854 231.897 96.0854 231.762 95.9829C232.004 95.9476 232.243 95.8814 232.474 95.7772C231.46 95.2975 230.612 94.6072 229.934 93.6974C230.434 93.824 231.091 93.6976 231.436 93.5162C231.058 93.3083 230.711 93.0546 230.394 92.7565C230.533 92.7261 230.675 92.6743 230.815 92.5976C230.187 92.2427 229.658 91.7338 229.235 91.0666C229.397 91.162 229.609 91.1975 229.824 91.1931C230.045 91.2018 230.274 91.1611 230.508 91.0507C230.538 91.0375 230.566 91.0238 230.592 91.0096C230.591 91.0095 230.591 91.0089 230.59 91.0086C230.592 91.0076 230.594 91.0069 230.595 91.0058C229.911 90.6191 229.357 90.0352 228.937 89.2433C229.182 89.3216 229.45 89.3178 229.725 89.1689C229.532 89.0572 229.357 88.9272 229.193 88.7673C229.194 88.7674 229.195 88.7674 229.196 88.7674C229.199 88.7685 229.202 88.7699 229.205 88.7709C229.435 88.8119 229.677 88.7858 229.93 88.6483C229.887 88.6243 229.846 88.5992 229.804 88.5732C229.796 88.5677 229.787 88.5618 229.779 88.5561C229.746 88.5349 229.714 88.5137 229.683 88.4913C229.673 88.4846 229.663 88.4771 229.654 88.4702C229.624 88.448 229.593 88.4257 229.564 88.4025C229.555 88.3952 229.546 88.3878 229.537 88.3807C229.507 88.3565 229.478 88.3319 229.448 88.3063C229.441 88.2999 229.433 88.2929 229.426 88.2862C229.396 88.2588 229.365 88.2308 229.336 88.2021C229.33 88.1969 229.325 88.1917 229.32 88.1865C229.287 88.1546 229.256 88.1222 229.225 88.0887C229.223 88.0862 229.22 88.0835 229.218 88.081C228.975 87.8165 228.767 87.4978 228.595 87.1239C228.623 87.1348 228.652 87.1426 228.681 87.1462C228.677 87.1388 228.677 87.135 228.673 87.1313C228.614 86.9939 228.562 86.8486 228.509 86.6999C228.733 86.8374 228.874 86.8225 229.153 86.6702C229.116 86.6494 229.08 86.6267 229.044 86.6028C229.039 86.5994 229.034 86.5959 229.029 86.5924C228.994 86.5691 228.961 86.5443 228.928 86.5182C228.923 86.5144 228.919 86.5107 228.914 86.5069C228.881 86.4801 228.849 86.452 228.818 86.4228C228.817 86.4226 228.817 86.4221 228.816 86.4217C228.787 86.3932 228.757 86.3632 228.729 86.3321C228.722 86.3246 228.715 86.3172 228.709 86.3097C228.683 86.2807 228.658 86.2504 228.633 86.2192C228.625 86.2085 228.617 86.1976 228.608 86.1866C228.591 86.1628 228.573 86.1382 228.556 86.1133C228.543 86.0946 228.53 86.0755 228.518 86.0561C228.504 86.0336 228.489 86.0104 228.476 85.9869C228.464 85.9673 228.453 85.9474 228.442 85.9273C228.432 85.91 228.423 85.892 228.414 85.8742C228.395 85.8371 228.376 85.7997 228.358 85.7608C228.354 85.7504 228.349 85.74 228.345 85.7295C228.32 85.6746 228.297 85.6183 228.275 85.5596C228.148 85.2162 228.064 84.8066 228.025 84.3269C228 84.7789 227.906 85.2186 227.713 85.6289C227.516 86.0141 227.129 86.4164 226.757 86.7328C226.936 86.7962 227.11 86.7924 227.274 86.7477C227.278 86.7439 227.282 86.7365 227.285 86.729C227.289 86.7328 227.289 86.7403 227.293 86.7439C227.352 86.7252 227.412 86.7029 227.471 86.6769C227.427 86.7811 227.382 86.8852 227.334 86.9894C227.372 86.978 227.422 86.9601 227.474 86.9378C227.185 87.5395 226.764 88.1061 226.173 88.6142C226.173 88.6153 226.172 88.6161 226.172 88.6172C226.158 88.6286 226.146 88.64 226.132 88.6515C226.147 88.6566 226.161 88.6608 226.175 88.6656C226.176 88.6658 226.176 88.6663 226.177 88.6667C226.182 88.6684 226.187 88.6696 226.193 88.6714C226.206 88.6755 226.22 88.6798 226.234 88.6835C226.251 88.6885 226.269 88.6927 226.286 88.6966C226.293 88.6984 226.3 88.7001 226.308 88.7018C226.457 88.7344 226.606 88.7403 226.749 88.7259C226.752 88.7252 226.755 88.7243 226.758 88.7236C226.774 88.7219 226.789 88.7207 226.805 88.7185C226.66 88.8746 226.504 89.0271 226.333 89.1722C226.562 89.2535 226.785 89.2613 227 89.2208C226.632 89.8366 226.152 90.4172 225.536 90.9526C225.514 90.9715 225.492 90.9904 225.47 91.0092C225.478 91.012 225.485 91.0143 225.493 91.0169C225.504 91.0207 225.515 91.0281 225.526 91.0352C225.786 91.1171 226.047 91.1393 226.296 91.1135C226.356 91.1093 226.428 91.0987 226.504 91.0826C226.561 91.0714 226.619 91.0584 226.675 91.043C226.296 91.5935 225.827 92.1175 225.254 92.6048C225.407 92.6607 225.563 92.6902 225.719 92.6976C225.418 92.984 225.083 93.2556 224.711 93.5194C224.714 93.5204 224.718 93.521 224.721 93.5218C224.72 93.5223 224.719 93.5225 224.719 93.523C224.704 93.5305 224.749 93.5379 224.764 93.5454C225.106 93.6534 225.448 93.6794 225.779 93.6496C225.829 93.6388 225.878 93.6283 225.925 93.6163C225.926 93.6163 225.927 93.6162 225.928 93.6162C225.452 94.4379 224.82 95.2708 223.763 95.7803C224.045 95.8666 224.298 95.9132 224.547 95.929C224.363 96.0579 224.173 96.1772 223.975 96.2861C224.247 96.4286 224.675 96.5427 225.109 96.565C224.665 96.9988 224.167 97.4174 223.6 97.8183C223.728 97.8588 224.035 97.8869 224.197 97.9111C223.741 98.298 223.247 98.6316 222.715 98.9115C223.045 99.0788 223.437 99.2148 223.825 99.2557C223.419 99.6163 222.981 99.963 222.503 100.302C222.678 100.354 222.856 100.395 223.031 100.425C222.853 100.584 222.663 100.741 222.469 100.897C222.609 100.947 222.756 100.975 222.907 100.987C222.625 101.176 222.332 101.349 222.027 101.507C222.737 101.678 223.377 101.793 224.284 101.187C224.355 101.567 224.407 101.812 224.295 102.076C224.803 102.007 225.06 101.79 225.342 101.407C225.424 101.366 225.507 101.324 225.589 101.284C225.656 101.634 225.642 102.154 225.582 102.441C225.882 102.527 226.542 102.158 227.038 101.761C227.042 101.76 227.046 101.759 227.05 101.759V104.9C227.05 105.451 227.498 105.899 228.05 105.899C228.601 105.899 229.049 105.451 229.049 104.9V102.279C229.381 102.454 229.718 102.583 230 102.612C229.889 102.445 229.822 102.193 229.781 101.931C229.871 101.966 229.942 101.979 229.982 101.954C229.962 101.762 229.976 101.545 230.01 101.346C230.4 101.653 230.966 102.064 231.38 102.132C231.241 101.908 231.232 101.393 231.305 101.147C231.482 101.21 231.658 101.277 231.839 101.336C232.466 101.688 233.234 101.684 233.719 101.541C233.745 101.53 233.819 101.519 233.797 101.504C233.749 101.473 233.701 101.442 233.653 101.41L233.653 101.41Z" fill="#C4C4C4"/>
<path d="M181.57 213.761C180.083 211.498 187.569 209.316 196.167 203.664C204.765 198.012 211.218 191.029 212.705 193.292C214.193 195.554 208.429 201.971 199.831 207.623C191.234 213.275 183.058 216.023 181.57 213.761Z" fill="#3E497A"/>
<path d="M216 106.92C216.084 106.97 216.167 107.022 216.246 107.079C216.322 107.138 216.399 107.198 216.471 107.261C216.541 107.327 216.613 107.392 216.678 107.462C216.712 107.497 216.743 107.532 216.775 107.568C216.807 107.604 216.84 107.639 216.868 107.676C217.11 107.972 217.308 108.297 217.461 108.639C217.615 108.981 217.722 109.341 217.777 109.707C217.829 110.074 217.835 110.449 217.748 110.812C217.615 110.462 217.503 110.127 217.376 109.796C217.25 109.467 217.118 109.145 216.976 108.825C216.833 108.507 216.682 108.191 216.518 107.877C216.356 107.561 216.18 107.252 216 106.92" fill="#C4C4C4"/>
<path d="M217.748 104C217.981 104.242 218.171 104.519 218.336 104.807C218.501 105.097 218.637 105.398 218.754 105.706C218.987 106.321 219.142 106.958 219.243 107.599C219.343 108.241 219.389 108.89 219.379 109.536C219.373 109.86 219.355 110.183 219.318 110.505C219.28 110.826 219.229 111.147 219.146 111.462C219.087 110.817 219.035 110.184 218.967 109.553C218.9 108.921 218.819 108.294 218.723 107.67C218.625 107.046 218.511 106.425 218.359 105.812C218.207 105.198 218.022 104.595 217.748 104" fill="#C4C4C4"/>
<path d="M220.894 106.595C220.979 106.927 220.999 107.26 221 107.589C220.999 107.918 220.974 108.244 220.936 108.566C220.897 108.887 220.844 109.206 220.783 109.524C220.719 109.843 220.652 110.161 220.544 110.488C220.431 110.163 220.387 109.829 220.371 109.498C220.356 109.167 220.374 108.836 220.414 108.511C220.453 108.185 220.514 107.865 220.592 107.546C220.67 107.229 220.76 106.913 220.894 106.595" fill="#C4C4C4"/>
<path d="M210 113.92C210.084 113.97 210.167 114.022 210.246 114.079C210.322 114.138 210.399 114.198 210.471 114.261C210.541 114.327 210.613 114.392 210.678 114.462C210.712 114.497 210.743 114.532 210.775 114.568C210.807 114.604 210.84 114.639 210.868 114.676C211.11 114.972 211.308 115.297 211.461 115.639C211.615 115.981 211.722 116.341 211.777 116.707C211.829 117.074 211.835 117.449 211.748 117.812C211.615 117.462 211.503 117.127 211.376 116.796C211.25 116.467 211.118 116.145 210.976 115.825C210.833 115.507 210.682 115.191 210.518 114.877C210.356 114.561 210.18 114.252 210 113.92" fill="#C4C4C4"/>
<path d="M211.748 111C211.981 111.242 212.171 111.519 212.336 111.807C212.501 112.097 212.637 112.398 212.754 112.706C212.987 113.321 213.142 113.958 213.243 114.599C213.343 115.241 213.389 115.89 213.379 116.536C213.373 116.86 213.355 117.183 213.318 117.505C213.28 117.826 213.229 118.147 213.146 118.462C213.087 117.817 213.035 117.184 212.967 116.553C212.9 115.921 212.819 115.294 212.723 114.67C212.625 114.046 212.511 113.425 212.359 112.812C212.207 112.198 212.022 111.595 211.748 111" fill="#C4C4C4"/>
<path d="M214.894 113.595C214.979 113.927 214.999 114.26 215 114.589C214.999 114.918 214.974 115.244 214.936 115.566C214.897 115.887 214.844 116.206 214.783 116.524C214.719 116.843 214.652 117.161 214.544 117.488C214.431 117.163 214.387 116.829 214.371 116.498C214.356 116.167 214.374 115.836 214.414 115.511C214.453 115.185 214.514 114.865 214.592 114.546C214.67 114.229 214.76 113.913 214.894 113.595" fill="#C4C4C4"/>
<path d="M234 101.92C234.084 101.97 234.167 102.022 234.246 102.079C234.322 102.138 234.399 102.198 234.471 102.261C234.541 102.327 234.613 102.392 234.678 102.462C234.712 102.497 234.743 102.532 234.775 102.568C234.807 102.604 234.84 102.639 234.868 102.676C235.11 102.972 235.308 103.297 235.461 103.639C235.615 103.981 235.722 104.341 235.777 104.707C235.829 105.074 235.835 105.449 235.748 105.812C235.615 105.462 235.503 105.127 235.376 104.796C235.25 104.467 235.118 104.145 234.976 103.825C234.833 103.507 234.682 103.191 234.518 102.877C234.356 102.561 234.18 102.252 234 101.92" fill="#C4C4C4"/>
<path d="M235.748 99C235.981 99.2421 236.171 99.5195 236.336 99.8072C236.501 100.097 236.637 100.398 236.754 100.706C236.987 101.321 237.142 101.958 237.243 102.599C237.343 103.241 237.389 103.89 237.379 104.536C237.373 104.86 237.355 105.183 237.318 105.505C237.28 105.826 237.229 106.147 237.146 106.462C237.087 105.817 237.035 105.184 236.967 104.553C236.9 103.921 236.819 103.294 236.723 102.67C236.625 102.046 236.511 101.425 236.359 100.812C236.207 100.198 236.022 99.5948 235.748 99" fill="#C4C4C4"/>
<path d="M238.894 101.595C238.979 101.927 238.999 102.26 239 102.589C238.999 102.918 238.974 103.244 238.936 103.566C238.897 103.887 238.844 104.206 238.783 104.524C238.719 104.843 238.652 105.161 238.544 105.488C238.431 105.163 238.387 104.829 238.371 104.498C238.356 104.167 238.374 103.836 238.414 103.511C238.453 103.185 238.514 102.865 238.592 102.546C238.67 102.229 238.76 101.913 238.894 101.595" fill="#C4C4C4"/>
<path d="M181.381 28.6193L177.5 27L173.619 28.6193L172 32.5L173.605 36.3807L177.5 38L181.381 36.3947L183 32.5001L181.381 28.6193ZM182.651 32.2906L180.906 31.816V31.7323C180.906 31.4531 180.753 31.2018 180.529 31.0623L181.311 29.0102L182.651 32.2906ZM176.914 33.9378C176.872 33.6167 176.69 33.3515 176.425 33.1979L177.123 31.5088C177.249 31.5507 177.374 31.5646 177.5 31.5646C177.626 31.5646 177.765 31.5507 177.877 31.5088L178.742 33.6027C178.631 33.6864 178.547 33.7981 178.519 33.9377L176.914 33.9378ZM179.063 33.505C179.036 33.505 179.008 33.505 178.966 33.519L178.1 31.4251C178.282 31.3273 178.421 31.1878 178.533 31.0203L179.398 31.4949C179.37 31.5786 179.357 31.6624 179.357 31.7461C179.357 32.0114 179.496 32.2486 179.692 32.3883L179.175 33.519C179.133 33.505 179.105 33.505 179.063 33.505H179.063ZM175.923 33.0583C175.811 33.0583 175.699 33.0722 175.602 33.1141L174.82 31.4948C174.945 31.397 175.029 31.2436 175.029 31.0621V31.0481L176.327 30.7271C176.425 31.0203 176.634 31.2715 176.914 31.4111L176.216 33.0862C176.118 33.0723 176.02 33.0583 175.923 33.0583L175.923 33.0583ZM180.124 30.9784C179.873 30.9784 179.664 31.0901 179.524 31.2716L178.659 30.797C178.729 30.6435 178.756 30.476 178.756 30.3084C178.756 30.1688 178.729 30.0431 178.687 29.9175L181.06 28.9264L180.292 30.9923C180.236 30.9784 180.18 30.9784 180.124 30.9784L180.124 30.9784ZM176.258 30.4898L174.959 30.8108C174.862 30.6293 174.68 30.5037 174.457 30.5037H174.415L173.912 28.9263L176.3 29.9174C176.258 30.0431 176.23 30.1687 176.23 30.3083C176.244 30.3781 176.244 30.434 176.258 30.4898L176.258 30.4898ZM174.066 31.453C174.164 31.5508 174.303 31.6205 174.457 31.6205C174.499 31.6205 174.541 31.6205 174.582 31.6066L175.364 33.2259C175.224 33.3096 175.113 33.4352 175.029 33.5748L172.419 32.5L174.066 31.453ZM179.398 33.6167L179.929 32.486C179.999 32.5 180.069 32.514 180.138 32.514C180.445 32.514 180.725 32.3325 180.836 32.0672L182.525 32.514L179.524 33.7563C179.496 33.7005 179.44 33.6586 179.399 33.6167L179.398 33.6167ZM178.589 29.6942C178.393 29.3452 178.03 29.1079 177.626 29.0661V27.3211L180.976 28.7031L178.589 29.6942ZM177.374 27.3211V29.066C176.956 29.1079 176.607 29.3451 176.411 29.6941L174.024 28.703L177.374 27.3211ZM173.703 29.0381L174.192 30.5737C174.024 30.6715 173.912 30.8529 173.912 31.0483C173.912 31.1181 173.926 31.1739 173.954 31.2437L172.391 32.2349L173.703 29.0381ZM172.363 32.7234L174.945 33.7983C174.917 33.8821 174.904 33.9658 174.904 34.0636C174.904 34.3009 174.987 34.5103 175.127 34.6917L173.745 36.0877L172.363 32.7234ZM173.926 36.2552L175.308 34.8593C175.476 34.9849 175.685 35.0686 175.923 35.0686C176.02 35.0686 176.118 35.0547 176.202 35.0268L177.277 37.6372L173.926 36.2552ZM176.425 34.9291C176.69 34.7755 176.886 34.4964 176.914 34.1753H178.519C178.547 34.315 178.631 34.4406 178.756 34.5104L177.5 37.5396L176.425 34.9291ZM178.98 34.608C179.008 34.608 179.035 34.6219 179.063 34.6219C179.175 34.6219 179.273 34.5939 179.357 34.5381L181.074 36.2551L177.723 37.6371L178.98 34.608ZM181.255 36.0737L179.524 34.3567C179.58 34.273 179.608 34.1752 179.608 34.0635C179.608 34.0356 179.608 34.0078 179.594 33.9798L182.623 32.7235L181.255 36.0737Z" fill="#1E3454"/>
</svg>
