<svg width="87" height="104" viewBox="0 0 87 104" fill="none" xmlns="http://www.w3.org/2000/svg">
<g filter="url(#filter0_d_15_18)">
<path d="M5 19.63C5 16.8686 7.23858 14.63 10 14.63H77C79.7614 14.63 82 16.8686 82 19.63V51.8435C82 53.161 81.48 54.4252 80.5531 55.3614L47.0531 89.1964C45.0965 91.1725 41.9035 91.1725 39.9469 89.1964L6.44692 55.3614C5.51998 54.4252 5 53.161 5 51.8435V19.63Z" fill="#3A2D83"/>
<path d="M5 5C5 2.23857 7.23858 0 10 0H77C79.7614 0 82 2.23858 82 5V37.2135C82 38.531 81.48 39.7952 80.5531 40.7314L47.0531 74.5664C45.0965 76.5425 41.9035 76.5425 39.9469 74.5664L6.44692 40.7314C5.51998 39.7952 5 38.531 5 37.2135V5Z" fill="#282150"/>
</g>
<g filter="url(#filter1_b_15_18)">
<path d="M36.025 23.025C37.1917 23.025 38.1917 23.1667 39.025 23.45C39.8583 23.7167 40.4667 24.0417 40.85 24.425C40.9167 24.4917 40.9583 24.5583 40.975 24.625C40.9917 24.6917 41 24.775 41 24.875C41 25.1917 41 25.55 41 25.95C41 26.35 41 26.75 41 27.15C41 27.55 41 27.9417 41 28.325C40.5333 28.325 40.05 28.325 39.55 28.325C39.05 28.325 38.5583 28.325 38.075 28.325C37.9917 28.325 37.925 28.3 37.875 28.25C37.825 28.2 37.8 28.1333 37.8 28.05C37.8 27.8833 37.8 27.7167 37.8 27.55C37.8 27.3833 37.8 27.2083 37.8 27.025C37.8 26.825 37.8 26.6167 37.8 26.4C37.8 26.1833 37.8 25.9417 37.8 25.675L38.5 26.575C38.1 26.4083 37.675 26.2833 37.225 26.2C36.7917 26.1167 36.3333 26.075 35.85 26.075C35.4 26.075 35.0083 26.1083 34.675 26.175C34.3417 26.2417 34.05 26.3583 33.8 26.525C33.5667 26.675 33.3833 26.875 33.25 27.125C33.1333 27.3583 33.075 27.6417 33.075 27.975V28.5C33.075 28.8167 33.125 29.0917 33.225 29.325C33.3417 29.5583 33.5417 29.7583 33.825 29.925C34.125 30.0917 34.5667 30.2667 35.15 30.45L37.55 31.175C38.3167 31.4083 38.9583 31.6667 39.475 31.95C40.0083 32.2167 40.425 32.525 40.725 32.875C41.025 33.225 41.2417 33.625 41.375 34.075C41.5083 34.525 41.575 35.0417 41.575 35.625V36.775C41.575 37.7417 41.3167 38.5833 40.8 39.3C40.2833 40 39.5333 40.5417 38.55 40.925C37.5833 41.2917 36.4167 41.475 35.05 41.475C34.25 41.475 33.4917 41.425 32.775 41.325C32.075 41.225 31.4583 41.075 30.925 40.875C30.4083 40.6583 30 40.4167 29.7 40.15C29.65 40.1 29.6083 40.05 29.575 40C29.5583 39.9333 29.55 39.825 29.55 39.675C29.55 39.375 29.55 39.0833 29.55 38.8C29.55 38.5167 29.55 38.2167 29.55 37.9C29.55 37.5833 29.55 37.2583 29.55 36.925H30.025C30.775 37.425 31.5583 37.8 32.375 38.05C33.1917 38.2833 34.1583 38.4 35.275 38.4C36.3083 38.4 37.0583 38.2333 37.525 37.9C38.0083 37.5667 38.25 37.1667 38.25 36.7V35.85C38.25 35.5667 38.2 35.3333 38.1 35.15C38.0167 34.95 37.8333 34.7667 37.55 34.6C37.2667 34.4167 36.8167 34.2417 36.2 34.075L33.825 33.35C33.0083 33.1 32.3333 32.8167 31.8 32.5C31.2667 32.1667 30.85 31.8167 30.55 31.45C30.2667 31.0833 30.0583 30.6917 29.925 30.275C29.8083 29.8417 29.75 29.3917 29.75 28.925V27.725C29.75 27.0417 29.8917 26.4167 30.175 25.85C30.475 25.2667 30.9 24.7667 31.45 24.35C32 23.9167 32.6583 23.5917 33.425 23.375C34.2083 23.1417 35.075 23.025 36.025 23.025ZM50.5902 31.425H56.8402C56.9236 31.425 56.9819 31.4417 57.0152 31.475C57.0486 31.4917 57.0736 31.5167 57.0902 31.55C57.1236 31.5833 57.1402 31.6333 57.1402 31.7V34.375H50.8902C50.8236 34.375 50.7736 34.375 50.7402 34.375C50.7069 34.3583 50.6736 34.3417 50.6402 34.325C50.6236 34.2917 50.6069 34.2583 50.5902 34.225C50.5902 34.1917 50.5902 34.15 50.5902 34.1C50.5902 33.65 50.5902 33.2083 50.5902 32.775C50.5902 32.325 50.5902 31.875 50.5902 31.425ZM51.2402 23C51.8402 23 52.3902 23.05 52.8902 23.15C53.4069 23.2333 53.8652 23.35 54.2652 23.5C54.6819 23.65 55.0402 23.8167 55.3402 24C55.6402 24.1833 55.8819 24.375 56.0652 24.575C56.1319 24.625 56.1736 24.6833 56.1902 24.75C56.2069 24.8167 56.2152 24.9 56.2152 25C56.2152 25.3167 56.2152 25.6833 56.2152 26.1C56.2152 26.5 56.2152 26.9083 56.2152 27.325C56.2152 27.725 56.2152 28.1167 56.2152 28.5C55.7319 28.5 55.2486 28.5 54.7652 28.5C54.2819 28.5 53.7986 28.5 53.3152 28.5C53.2319 28.5 53.1652 28.475 53.1152 28.425C53.0652 28.375 53.0402 28.3083 53.0402 28.225C53.0402 28.0083 53.0402 27.7917 53.0402 27.575C53.0402 27.3417 53.0402 27.0917 53.0402 26.825C53.0402 26.5417 53.0402 26.2167 53.0402 25.85L53.7402 26.925C53.3402 26.6583 52.9402 26.475 52.5402 26.375C52.1569 26.275 51.7069 26.225 51.1902 26.225C50.6902 26.225 50.2319 26.2917 49.8152 26.425C49.4152 26.5583 49.0736 26.775 48.7902 27.075C48.5236 27.3583 48.3152 27.7167 48.1652 28.15C48.0152 28.5833 47.9402 29.1 47.9402 29.7V35.025C47.9402 35.5917 48.0069 36.0917 48.1402 36.525C48.2902 36.9583 48.4986 37.3083 48.7652 37.575C49.0319 37.8417 49.3402 38.0417 49.6902 38.175C50.0402 38.2917 50.4319 38.35 50.8652 38.35C51.3486 38.35 51.7486 38.3167 52.0652 38.25C52.3819 38.1833 52.6236 38.1167 52.7902 38.05C52.9569 37.9667 53.0402 37.925 53.0402 37.925C53.0402 37.3917 53.0402 36.8667 53.0402 36.35C53.0402 35.8333 53.0402 35.325 53.0402 34.825C53.0402 34.3083 53.0402 33.8083 53.0402 33.325H56.3402L56.2152 33.925C56.2152 34.7917 56.2152 35.7417 56.2152 36.775C56.2152 37.8083 56.2152 38.8083 56.2152 39.775C56.2152 39.8083 56.2069 39.8417 56.1902 39.875C56.1902 39.9083 56.1736 39.9417 56.1402 39.975C55.8902 40.225 55.4986 40.475 54.9652 40.725C54.4319 40.9583 53.8152 41.1417 53.1152 41.275C52.4319 41.425 51.7069 41.5 50.9402 41.5C49.8402 41.5 48.8736 41.35 48.0402 41.05C47.2069 40.75 46.5152 40.3167 45.9652 39.75C45.4319 39.1833 45.0236 38.5083 44.7402 37.725C44.4736 36.925 44.3402 36.0333 44.3402 35.05V29.6C44.3402 28.6167 44.4902 27.725 44.7902 26.925C45.0902 26.125 45.5319 25.4333 46.1152 24.85C46.7152 24.25 47.4402 23.7917 48.2902 23.475C49.1569 23.1583 50.1402 23 51.2402 23Z" fill="white"/>
</g>
<defs>
<filter id="filter0_d_15_18" x="0" y="0" width="87" height="103.678" filterUnits="userSpaceOnUse" color-interpolation-filters="sRGB">
<feFlood flood-opacity="0" result="BackgroundImageFix"/>
<feColorMatrix in="SourceAlpha" type="matrix" values="0 0 0 0 0 0 0 0 0 0 0 0 0 0 0 0 0 0 127 0" result="hardAlpha"/>
<feOffset dy="8"/>
<feGaussianBlur stdDeviation="2.5"/>
<feComposite in2="hardAlpha" operator="out"/>
<feColorMatrix type="matrix" values="0 0 0 0 0 0 0 0 0 0 0 0 0 0 0 0 0 0 0.31 0"/>
<feBlend mode="normal" in2="BackgroundImageFix" result="effect1_dropShadow_15_18"/>
<feBlend mode="normal" in="SourceGraphic" in2="effect1_dropShadow_15_18" result="shape"/>
</filter>
<filter id="filter1_b_15_18" x="12.55" y="6" width="61.5901" height="52.5" filterUnits="userSpaceOnUse" color-interpolation-filters="sRGB">
<feFlood flood-opacity="0" result="BackgroundImageFix"/>
<feGaussianBlur in="BackgroundImage" stdDeviation="8.5"/>
<feComposite in2="SourceAlpha" operator="in" result="effect1_backgroundBlur_15_18"/>
<feBlend mode="normal" in="SourceGraphic" in2="effect1_backgroundBlur_15_18" result="shape"/>
</filter>
</defs>
</svg>
